# xmcd
#
# Track frame offsets:
#	150
#	13860
#	27437
#	40727
#	57262
#	74495
#	88835
#	105245
#	119740
#	134432
#	149412
#	164820
#	179895
#	197927
#
# Disc length: 2863 seconds
#
# Revision: 1
# Processed by: cddbd v1.5.1PL0 Copyright (c) Steve Scherf et al.
# Submitted via: EasyCDDAExtractor 7.0.5.4
#
DISCID=de0b2d0e
DTITLE=Henrique E Hernane - Festa, Cerveja e Mulher
DYEAR=1900
DGENRE=
TTITLE0=Ela é Dez
TTITLE1=Bom Demais da Conta
TTITLE2=Pra Lá de Bagdá
TTITLE3=Valdemar
TTITLE4=Um Conto de Amor
TTITLE5=Abre o Olho Zé
TTITLE6=Festa Cerveja e Mulher
TTITLE7=Mosquitinho
TTITLE8=Dança da Botinha
TTITLE9=Ganho a Vida no Gogó
TTITLE10=Vai Doer pra Lá
TTITLE11=A História de Loló
TTITLE12=Toma Conta
TTITLE13=A Coisa Tá Feia
EXTD=
EXTT0=
EXTT1=
EXTT2=
EXTT3=
EXTT4=
EXTT5=
EXTT6=
EXTT7=
EXTT8=
EXTT9=
EXTT10=
EXTT11=
EXTT12=
EXTT13=
PLAYORDER=
